<svg width="75" height="75" viewBox="0 0 75 75" fill="none" xmlns="http://www.w3.org/2000/svg">
<path d="M37.5001 74.9998C16.7895 74.9998 0.000198364 58.2105 0.000198364 37.4999C0.000198364 16.7893 16.7895 0 37.5001 0C58.2107 0 75 16.7893 75 37.4999C75 58.2105 58.2107 74.9998 37.5001 74.9998Z" fill="url(#paint0_linear_152_7425)"/>
<path d="M37.5 73.7499C17.4797 73.7499 1.24999 57.5202 1.24999 37.4999C1.24999 17.4796 17.4797 1.24988 37.5 1.24988C57.5203 1.24988 73.75 17.4796 73.75 37.4999C73.75 57.5202 57.5203 73.7499 37.5 73.7499Z" fill="url(#paint1_linear_152_7425)"/>
<path d="M37.5005 72.4999C18.1706 72.4999 2.50058 56.8299 2.50058 37.5C2.50058 18.17 18.1706 2.5 37.5005 2.5C56.8305 2.5 72.5005 18.17 72.5005 37.5C72.5005 56.8299 56.8305 72.4999 37.5005 72.4999Z" fill="url(#paint2_linear_152_7425)"/>
<mask id="mask0_152_7425" style="mask-type:alpha" maskUnits="userSpaceOnUse" x="2" y="2" width="71" height="71">
<path d="M37.5005 72.4999C18.1706 72.4999 2.50058 56.8299 2.50058 37.5C2.50058 18.17 18.1706 2.5 37.5005 2.5C56.8305 2.5 72.5005 18.17 72.5005 37.5C72.5005 56.8299 56.8305 72.4999 37.5005 72.4999Z" fill="url(#paint3_radial_152_7425)"/>
</mask>
<g mask="url(#mask0_152_7425)">
<path d="M37.5005 72.4999C18.1706 72.4999 2.50058 56.8299 2.50058 37.5C2.50058 18.17 18.1706 2.5 37.5005 2.5C56.8305 2.5 72.5005 18.17 72.5005 37.5C72.5005 56.8299 56.8305 72.4999 37.5005 72.4999Z" fill="url(#paint4_radial_152_7425)"/>
<path d="M37.4999 66.875C21.2765 66.875 8.12485 53.7234 8.12485 37.5C8.12485 21.2765 21.2765 8.12488 37.4999 8.12488C53.7233 8.12488 66.875 21.2765 66.875 37.5C66.875 53.7234 53.7233 66.875 37.4999 66.875Z" fill="url(#paint5_linear_152_7425)"/>
<path d="M37.5 65.6248C21.9671 65.6248 9.3751 53.0328 9.3751 37.4998C9.3751 21.9668 21.9671 9.37488 37.5 9.37488C53.033 9.37488 65.625 21.9668 65.625 37.4998C65.625 53.0328 53.033 65.6248 37.5 65.6248Z" fill="url(#paint6_linear_152_7425)"/>
<path d="M37.5001 64.3748C22.6575 64.3748 10.6252 52.3425 10.6252 37.4999C10.6252 22.6573 22.6575 10.625 37.5001 10.625C52.3427 10.625 64.375 22.6573 64.375 37.4999C64.375 52.3425 52.3427 64.3748 37.5001 64.3748Z" fill="url(#paint7_linear_152_7425)"/>
</g>
<mask id="mask1_152_7425" style="mask-type:alpha" maskUnits="userSpaceOnUse" x="10" y="10" width="55" height="55">
<path d="M37.5001 64.3748C22.6575 64.3748 10.6252 52.3425 10.6252 37.4999C10.6252 22.6573 22.6575 10.625 37.5001 10.625C52.3427 10.625 64.375 22.6573 64.375 37.4999C64.375 52.3425 52.3427 64.3748 37.5001 64.3748Z" fill="url(#paint8_radial_152_7425)"/>
</mask>
<g mask="url(#mask1_152_7425)">
<path d="M37.5001 64.3748C22.6575 64.3748 10.6252 52.3425 10.6252 37.4999C10.6252 22.6573 22.6575 10.625 37.5001 10.625C52.3427 10.625 64.375 22.6573 64.375 37.4999C64.375 52.3425 52.3427 64.3748 37.5001 64.3748Z" fill="url(#paint9_radial_152_7425)"/>
<path d="M50.8696 24.5692C50.8671 24.5683 50.8646 24.5676 50.8621 24.5667C50.8634 24.5669 50.8653 24.5676 50.8667 24.5678C50.868 24.568 50.8685 24.5687 50.8696 24.5692Z" fill="url(#paint10_linear_152_7425)"/>
<path d="M27.7795 27.2999L29.6904 27.5895C27.3594 28.8782 25.4917 30.7291 24.0752 32.8799L24.4352 30.3188C25.4331 29.148 26.5511 28.1385 27.7795 27.2999Z" fill="url(#paint11_linear_152_7425)"/>
<path d="M21.2257 27.3834C21.6754 30.4173 22.6039 32.8394 23.0838 33.9477C21.5212 36.9562 20.7366 40.3678 20.7017 43.5872C20.7011 43.5872 20.7009 43.5876 20.7005 43.5878C20.6997 43.6622 20.6982 43.737 20.6982 43.8113C20.6982 49.0438 29.5797 56.3333 37.5001 56.3333C45.4206 56.3333 54.3021 49.0438 54.3021 43.8113C54.3021 43.7405 54.3008 43.6694 54.3002 43.5984C54.2998 43.5984 54.2994 43.598 54.2992 43.5978C54.2659 40.3753 53.4813 36.9597 51.9167 33.9477C52.3968 32.8394 53.3251 30.4171 53.7747 27.3834C56.4895 30.8735 58.1069 35.2595 58.1069 40.0236C58.1069 51.4043 48.881 60.6302 37.5003 60.6302C26.1196 60.6302 16.8938 51.4043 16.8938 40.0236C16.8936 35.2595 18.511 30.8735 21.2257 27.3834Z" fill="url(#paint12_linear_152_7425)"/>
<path d="M43.8622 26.2653C41.9981 25.484 39.8796 25.0388 37.5001 25.0388C35.1207 25.0388 33.0021 25.484 31.1381 26.2653C29.985 24.6354 28.7455 23.2571 27.3886 22.0658C30.376 20.3801 33.8255 19.417 37.5003 19.417C41.175 19.417 44.6244 20.38 47.6118 22.0658C46.2547 23.2571 45.0152 24.6356 43.8622 26.2653Z" fill="url(#paint13_linear_152_7425)"/>
<path d="M45.3096 26.9644L47.2203 26.6748C48.4489 27.5136 49.5667 28.5226 50.5648 29.6937L50.9248 32.2548C49.5083 30.1038 47.6406 28.2529 45.3096 26.9644Z" fill="url(#paint14_linear_152_7425)"/>
<path d="M20.0086 20.4945C20.274 18.9362 21.3372 17.9293 22.7174 17.9293C23.3372 17.9293 23.9926 18.1351 24.6653 18.541C27.4137 20.1992 29.6317 22.1892 31.5825 24.7568L31.1384 26.2653C29.0947 23.3766 26.7804 21.2771 24.0198 19.6115C22.3638 18.6125 21.4457 19.501 21.241 20.7043C20.2363 26.6041 22.2841 32.1 23.0842 33.9478L21.7097 33.9008C20.7171 31.4438 19.0401 26.182 20.0086 20.4945Z" fill="url(#paint15_linear_152_7425)"/>
<path d="M53.7596 20.7043C53.5547 19.501 52.6368 18.6125 50.9808 19.6115C48.22 21.2773 45.9059 23.3768 43.8622 26.2653L43.4183 24.7568C45.3689 22.1892 47.5868 20.1994 50.3353 18.541C51.008 18.1351 51.6634 17.9293 52.2832 17.9293C53.6636 17.9293 54.7268 18.9362 54.9922 20.4943C55.9607 26.1834 54.2837 31.4442 53.2911 33.9006L51.9166 33.9476C52.7167 32.1 54.7643 26.6041 53.7596 20.7043Z" fill="url(#paint16_linear_152_7425)"/>
<path d="M37.5001 25.0388C35.1206 25.0388 33.002 25.484 31.138 26.2653L31.5821 24.7569C33.4234 24.114 35.4093 23.7887 37.5003 23.7887C39.5909 23.7887 41.5769 24.114 43.4184 24.7569L43.8623 26.2653C41.9981 25.484 39.8795 25.0388 37.5001 25.0388Z" fill="url(#paint17_linear_152_7425)"/>
<path d="M29.9827 46.6832C29.9827 46.6832 31.841 40.8971 37.4776 40.8971C43.1141 40.8971 44.9723 46.6832 44.9723 46.6832C47.5753 43.2933 51.3249 43.2006 53.2422 43.4202C53.2194 43.6734 53.1701 44.0398 53.0685 44.5652C52.6811 46.5683 50.8421 49.0523 48.1645 51.1176C44.8705 53.6585 40.8841 55.1754 37.5006 55.1754C34.1171 55.1754 30.1306 53.6585 26.8368 51.1178C24.1571 49.0507 22.3174 46.5683 21.9319 44.561C21.839 44.077 21.7642 43.706 21.7092 43.4204C23.6255 43.2004 27.3788 43.292 29.9827 46.6832Z" fill="url(#paint18_linear_152_7425)"/>
<path d="M36.4147 50.8784H38.5867C38.8643 50.8784 39.0894 51.1137 39.0894 51.4039C39.0894 51.6941 38.8643 51.9293 38.5867 51.9293C38.4598 51.9293 38.31 51.8799 38.1842 51.7988C38.1142 51.7536 38.0203 51.7727 37.9735 51.8418C37.8682 51.9966 37.6964 52.098 37.5007 52.098C37.305 52.098 37.1332 51.9966 37.0279 51.8418C36.981 51.7727 36.8871 51.7536 36.8171 51.7988C36.6914 51.8799 36.5416 51.9293 36.4147 51.9293C36.137 51.9293 35.912 51.6941 35.912 51.4039C35.912 51.1137 36.137 50.8784 36.4147 50.8784Z" fill="url(#paint19_linear_152_7425)"/>
<path d="M33.1909 49.4328H34.6452H34.8106H36.2128C36.396 49.4328 36.5518 49.3165 36.6263 49.1491C36.6799 49.0286 36.7578 48.9212 36.8536 48.8333C36.9938 48.7046 37.0827 48.5301 37.0827 48.34V47.55C37.02 47.5311 36.9581 47.5095 36.8978 47.4821L36.2458 47.1848C35.6278 46.9029 35.2314 46.2862 35.2314 45.6071V44.8682C35.2314 44.2359 35.7439 43.7234 36.3762 43.7234H38.6235C39.2558 43.7234 39.7683 44.2359 39.7683 44.8682V45.6071C39.7683 46.2862 39.3719 46.9029 38.7539 47.1848L38.102 47.4821C38.0418 47.5097 37.9797 47.5311 37.917 47.55V48.34C37.917 48.5301 38.0061 48.7046 38.1463 48.8333C38.2421 48.9212 38.32 49.0286 38.3736 49.1491C38.4483 49.3165 38.6039 49.4328 38.7871 49.4328H40.1893H40.3547H41.809C41.9349 49.4328 42.0146 49.5677 41.9538 49.678L40.4995 52.3184C40.417 52.4682 40.1893 52.4096 40.1893 52.2385V50.2933C39.4967 50.3516 38.4562 50.4225 37.5 50.4225C36.5437 50.4225 35.5033 50.3516 34.8106 50.2933V52.2385C34.8106 52.4096 34.5829 52.4682 34.5004 52.3184L33.0461 49.678C32.9853 49.5677 33.065 49.4328 33.1909 49.4328Z" fill="url(#paint20_linear_152_7425)"/>
<path d="M54.3022 43.8112C54.3022 43.7405 54.3008 43.6693 54.3 43.5984C54.2997 43.5984 54.2993 43.598 54.2991 43.5978C54.2657 40.3753 53.4811 36.9596 51.9165 33.9477L53.291 33.9006C54.5395 36.4824 55.3074 39.4239 55.5015 42.3483L55.5509 43.6489C55.5517 43.7031 55.5522 43.7572 55.5522 43.8114C55.5522 46.7221 53.3402 50.1661 49.6349 53.0244C45.8788 55.9218 41.4558 57.5835 37.5004 57.5835L37.5002 56.3334C45.4207 56.3332 54.3022 49.0437 54.3022 43.8112Z" fill="url(#paint21_linear_152_7425)"/>
<path d="M19.4495 43.6364L19.48 42.6673C19.6375 39.6382 20.4154 36.5758 21.709 33.9005L23.0835 33.9476C21.5208 36.956 20.7362 40.3676 20.7013 43.587C20.7007 43.587 20.7006 43.5874 20.7002 43.5876C20.6994 43.6621 20.6979 43.7369 20.6979 43.8111C20.6979 49.0436 29.5793 56.3331 37.4998 56.3331L37.5 57.5832C33.5444 57.5832 29.1214 55.9214 25.3654 53.0241C21.66 50.1658 19.448 46.7218 19.448 43.8111C19.448 43.7531 19.4487 43.6946 19.4495 43.6364Z" fill="url(#paint22_linear_152_7425)"/>
<path d="M20.7004 43.5877C20.7008 43.5877 20.701 43.5873 20.7015 43.5871C20.7364 40.3677 21.521 36.9561 23.0837 33.9476C22.2837 32.1 20.2359 26.6039 21.2405 20.704C21.4453 19.5008 22.3633 18.6123 24.0193 19.6113C26.7801 21.2771 29.0942 23.3766 31.1382 26.2651C33.0022 25.4838 35.1207 25.0385 37.5002 25.0385C39.8797 25.0385 41.9982 25.4838 43.8622 26.2651C45.906 23.3764 48.2203 21.2769 50.9809 19.6113C52.6369 18.6123 53.5549 19.5008 53.7597 20.704C54.7643 26.6039 52.7165 32.0998 51.9163 33.9476C53.4809 36.9593 54.2655 40.3752 54.2989 43.5977C54.2993 43.5977 54.2996 43.5981 54.2998 43.5983C54.3006 43.6692 54.3018 43.7404 54.3018 43.8112C54.3018 49.0436 45.4203 56.3332 37.4998 56.3332C29.5794 56.3332 20.6979 49.0436 20.6979 43.8112C20.6981 43.7369 20.6994 43.6621 20.7004 43.5877ZM23.4275 22.0401C23.0239 21.8853 22.5829 22.1442 22.5139 22.571C21.8556 26.6384 23.3174 30.5689 24.0752 32.2548C25.4915 30.104 27.3594 28.2531 29.6904 26.9645C28.219 25.14 25.9764 23.0177 23.4275 22.0401ZM52.4861 22.571C52.4171 22.1446 51.9773 21.8849 51.5739 22.0395C49.0243 23.017 46.7814 25.1398 45.3096 26.9643C47.6406 28.2527 49.5083 30.1038 50.925 32.2546C51.6826 30.5689 53.1442 26.6384 52.4861 22.571ZM21.9312 44.5607C22.3166 46.5682 24.1564 49.0506 26.836 51.1175C30.1299 53.6583 34.1163 55.1751 37.4998 55.1751C40.8833 55.1751 44.8699 53.6581 48.1638 51.1173C50.8413 49.0519 52.6803 46.568 53.0677 44.5649C53.1693 44.0393 53.2187 43.6731 53.2414 43.4197C51.3242 43.2003 47.5745 43.293 44.9716 46.6827C44.9716 46.6827 43.1133 40.8968 37.4769 40.8968C31.8404 40.8968 29.982 46.6827 29.982 46.6827C27.3781 43.2915 23.6247 43.1999 21.7083 43.4197C21.7634 43.7057 21.8384 44.0767 21.9312 44.5607Z" fill="url(#paint23_linear_152_7425)"/>
<path d="M22.5136 22.571C22.5826 22.1444 23.0238 21.8855 23.4272 22.0401C25.9761 23.0177 28.2185 25.14 29.6899 26.9643L27.779 26.6746C26.8074 25.6409 25.3525 24.3181 23.6537 23.4992C23.4326 25.8065 23.9092 28.0445 24.4347 29.6935L24.0747 32.2546C23.3171 30.5687 21.8553 26.6384 22.5136 22.571Z" fill="url(#paint24_linear_152_7425)"/>
<path d="M51.3459 23.4995C49.6475 24.3182 48.1924 25.6412 47.2206 26.6749L45.3099 26.9645C46.7817 25.1398 49.0247 23.0172 51.5742 22.0398C51.9774 21.8852 52.4174 22.1449 52.4864 22.5712C53.1445 26.6387 51.6831 30.569 50.9253 32.2549L50.5653 29.6938C51.0906 28.0447 51.5671 25.8068 51.3459 23.4995Z" fill="url(#paint25_linear_152_7425)"/>
<path d="M27.78 26.6747L29.6909 26.9643C27.3599 28.2529 25.4922 30.1039 24.0757 32.2546L24.4357 29.6935C25.4336 28.5229 26.5516 27.5135 27.78 26.6747Z" fill="url(#paint26_linear_152_7425)"/>
<path d="M47.8767 36.8231C47.9514 37.1135 48.0258 37.5283 48.0293 38.035C48.0324 38.4967 47.8013 38.9276 47.4196 39.1876C46.5061 39.8094 44.5258 40.8696 41.7474 40.7702C41.6119 40.7654 41.4911 40.6802 41.4381 40.5554C41.3953 40.4546 41.4003 40.3402 41.4549 40.2454C41.9559 39.3734 44.4151 37.0164 47.2657 36.4342C47.5397 36.3781 47.8069 36.5522 47.8767 36.8231Z" fill="url(#paint27_linear_152_7425)"/>
<path d="M27.6888 36.4343C30.5393 37.0163 32.9986 39.3734 33.4996 40.2456C33.5541 40.3405 33.5591 40.4548 33.5163 40.5557C33.4633 40.6804 33.3426 40.7656 33.207 40.7705C30.4286 40.87 28.4483 39.8096 27.5349 39.1877C27.1533 38.928 26.9223 38.4968 26.9252 38.0352C26.9285 37.5284 27.0031 37.1137 27.0777 36.8233C27.1471 36.5524 27.4146 36.3782 27.6888 36.4343Z" fill="url(#paint28_linear_152_7425)"/>
<path d="M29.9036 35.6012C28.5099 35.6012 27.9291 35.2106 27.9291 34.5137C27.9291 33.5318 28.89 32.4653 29.9457 32.4653C31.4449 32.4653 32.1313 33.6267 32.1313 34.5347C32.1313 35.4429 31.2972 35.6012 29.9036 35.6012Z" fill="url(#paint29_linear_152_7425)"/>
<path d="M47.0713 34.5138C47.0713 35.2106 46.4905 35.6013 45.097 35.6013C43.7032 35.6013 42.8691 35.443 42.8691 34.535C42.8691 33.627 43.5553 32.4656 45.0547 32.4656C46.1104 32.4656 47.0713 33.5319 47.0713 34.5138Z" fill="url(#paint30_linear_152_7425)"/>
<path d="M19.4529 44.0012C19.5462 46.871 21.7406 50.2278 25.3658 53.0242C29.1219 55.9215 33.5449 57.5833 37.5004 57.5833C41.456 57.5833 45.8788 55.9215 49.6349 53.0242C53.34 50.1661 55.5521 46.7223 55.5522 43.8116C55.5522 43.8186 55.5522 45.0665 55.5522 45.1205C55.5522 48.0312 53.3402 51.4752 49.6349 54.3334C45.8788 57.2308 41.4558 58.8925 37.5004 58.8925C33.5449 58.8925 29.1219 57.2308 25.3658 54.3334C21.6605 51.4752 19.4485 48.0312 19.4485 45.1205C19.4485 45.0623 19.4529 44.0012 19.4529 44.0012Z" fill="url(#paint31_linear_152_7425)"/>
<path d="M51.3457 23.4994C51.4057 24.1234 51.413 24.7418 51.3837 25.3455C51.3747 25.1669 51.3631 24.9882 51.3457 24.8087C50.0424 25.4369 48.8838 26.3617 47.9754 27.2251C47.7282 27.035 47.4773 26.8503 47.2205 26.675C48.1923 25.6411 49.6471 24.3179 51.3457 23.4994Z" fill="url(#paint32_linear_152_7425)"/>
<path d="M23.6168 25.3447C23.5873 24.7414 23.5948 24.1232 23.6545 23.4994C25.3533 24.3183 26.8082 25.6411 27.7798 26.6748C27.7798 26.6748 27.2721 27.0348 27.0249 27.225C26.1167 26.3615 24.958 25.4367 23.6545 24.8085C23.6374 24.9878 23.6258 25.1664 23.6168 25.3447Z" fill="url(#paint33_linear_152_7425)"/>
</g>
<defs>
<linearGradient id="paint0_linear_152_7425" x1="37.5" y1="0" x2="37.5" y2="74.9999" gradientUnits="userSpaceOnUse">
<stop stop-color="#FFF8CE"/>
<stop offset="0.0943" stop-color="#FFED86"/>
<stop offset="0.4949" stop-color="#F09900"/>
<stop offset="1" stop-color="#B55400"/>
</linearGradient>
<linearGradient id="paint1_linear_152_7425" x1="37.4999" y1="1.24999" x2="37.4999" y2="73.7499" gradientUnits="userSpaceOnUse">
<stop stop-color="#FFDF49"/>
<stop offset="0.4915" stop-color="#FAAC00"/>
<stop offset="1" stop-color="#DB7200"/>
</linearGradient>
<linearGradient id="paint2_linear_152_7425" x1="37.5005" y1="2.50003" x2="37.5005" y2="72.5" gradientUnits="userSpaceOnUse">
<stop stop-color="#FFBD0C"/>
<stop offset="0.4476" stop-color="#FFF4B6"/>
<stop offset="0.495" stop-color="#FFD131"/>
<stop offset="0.5066" stop-color="#FFBD0C"/>
<stop offset="1" stop-color="#EA8F00"/>
</linearGradient>
<radialGradient id="paint3_radial_152_7425" cx="0" cy="0" r="1" gradientUnits="userSpaceOnUse" gradientTransform="translate(37.5005 37.5) rotate(180) scale(35)">
<stop offset="0.879"/>
<stop offset="1" stop-color="#4D4D4D"/>
</radialGradient>
<radialGradient id="paint4_radial_152_7425" cx="0" cy="0" r="1" gradientUnits="userSpaceOnUse" gradientTransform="translate(37.5005 37.5) rotate(180) scale(35)">
<stop offset="0.879" stop-color="#FFED86"/>
<stop offset="1" stop-color="#FFDF49"/>
</radialGradient>
<linearGradient id="paint5_linear_152_7425" x1="37.4999" y1="8.12503" x2="37.4999" y2="66.875" gradientUnits="userSpaceOnUse">
<stop stop-color="#FAAC00"/>
<stop offset="0.4456" stop-color="#FFBD0C"/>
<stop offset="1" stop-color="#FFBD0C"/>
</linearGradient>
<linearGradient id="paint6_linear_152_7425" x1="37.5" y1="9.37494" x2="37.5" y2="65.6248" gradientUnits="userSpaceOnUse">
<stop stop-color="#CE6800"/>
<stop offset="0.2313" stop-color="#F5A300"/>
<stop offset="0.8121" stop-color="#FFDF49"/>
<stop offset="1" stop-color="#FFF8CE"/>
</linearGradient>
<linearGradient id="paint7_linear_152_7425" x1="37.5" y1="10.8537" x2="37.5" y2="63.7886" gradientUnits="userSpaceOnUse">
<stop stop-color="#FFBD0C"/>
<stop offset="0.4476" stop-color="#FFD83D"/>
<stop offset="0.495" stop-color="#FFD131"/>
<stop offset="0.5066" stop-color="#FFBD0C"/>
<stop offset="1" stop-color="#F5A300"/>
</linearGradient>
<radialGradient id="paint8_radial_152_7425" cx="0" cy="0" r="1" gradientUnits="userSpaceOnUse" gradientTransform="translate(37.5 37.5) rotate(180) scale(26.875)">
<stop offset="0.6542"/>
<stop offset="1" stop-color="#808080"/>
</radialGradient>
<radialGradient id="paint9_radial_152_7425" cx="0" cy="0" r="1" gradientUnits="userSpaceOnUse" gradientTransform="translate(37.5 37.5) rotate(180) scale(26.875)">
<stop offset="0.6542" stop-color="#FFBD0C"/>
<stop offset="1" stop-color="#F5A300"/>
</radialGradient>
<linearGradient id="paint10_linear_152_7425" x1="50.8659" y1="24.5691" x2="50.8659" y2="24.5665" gradientUnits="userSpaceOnUse">
<stop stop-color="#F29E00"/>
<stop offset="1" stop-color="#EA8F00"/>
</linearGradient>
<linearGradient id="paint11_linear_152_7425" x1="28.2991" y1="27.9147" x2="24.7885" y2="31.0104" gradientUnits="userSpaceOnUse">
<stop stop-color="#FFF4B6"/>
<stop offset="1" stop-color="#FFD83D"/>
</linearGradient>
<linearGradient id="paint12_linear_152_7425" x1="37.5001" y1="27.3834" x2="37.5001" y2="60.6303" gradientUnits="userSpaceOnUse">
<stop offset="0.1087" stop-color="#FFD83D"/>
<stop offset="0.2488" stop-color="#FFE655"/>
<stop offset="0.4158" stop-color="#FFC418"/>
<stop offset="1" stop-color="#FFB600"/>
</linearGradient>
<linearGradient id="paint13_linear_152_7425" x1="37.5" y1="19.417" x2="37.5" y2="26.2654" gradientUnits="userSpaceOnUse">
<stop stop-color="#FFD83D"/>
<stop offset="1" stop-color="#FFD131"/>
</linearGradient>
<linearGradient id="paint14_linear_152_7425" x1="48.1172" y1="26.6747" x2="48.1172" y2="32.2546" gradientUnits="userSpaceOnUse">
<stop stop-color="#F09900"/>
<stop offset="1" stop-color="#FFBD0C"/>
</linearGradient>
<linearGradient id="paint15_linear_152_7425" x1="27.68" y1="22.5263" x2="21.5843" y2="26.5476" gradientUnits="userSpaceOnUse">
<stop stop-color="#FFE655"/>
<stop offset="0.2792" stop-color="white"/>
<stop offset="0.3144" stop-color="#FFF3D4"/>
<stop offset="0.4889" stop-color="#FFB600"/>
<stop offset="0.7444" stop-color="#F09900"/>
<stop offset="0.9931" stop-color="#DB7200"/>
</linearGradient>
<linearGradient id="paint16_linear_152_7425" x1="46.1847" y1="21.6281" x2="55.1208" y2="27.7238" gradientUnits="userSpaceOnUse">
<stop stop-color="white"/>
<stop offset="0.1792" stop-color="#FFD131"/>
<stop offset="0.3694" stop-color="#FFB600"/>
<stop offset="0.4139" stop-color="#F09900"/>
<stop offset="0.8819" stop-color="#CE6800"/>
<stop offset="1" stop-color="#C25E00"/>
</linearGradient>
<linearGradient id="paint17_linear_152_7425" x1="43.8621" y1="25.0271" x2="31.1379" y2="25.0271" gradientUnits="userSpaceOnUse">
<stop stop-color="#FFC418"/>
<stop offset="0.45" stop-color="#FFD83D"/>
<stop offset="1" stop-color="#FFF4B6"/>
</linearGradient>
<linearGradient id="paint18_linear_152_7425" x1="37.4756" y1="40.8972" x2="37.4756" y2="55.1754" gradientUnits="userSpaceOnUse">
<stop stop-color="#FFED86"/>
<stop offset="0.4292" stop-color="#FFD131"/>
<stop offset="1" stop-color="#FFE655"/>
</linearGradient>
<linearGradient id="paint19_linear_152_7425" x1="37.6245" y1="52.1064" x2="37.3767" y2="50.7013" gradientUnits="userSpaceOnUse">
<stop stop-color="#E58500"/>
<stop offset="1" stop-color="#CA6A00"/>
</linearGradient>
<linearGradient id="paint20_linear_152_7425" x1="37.8849" y1="51.782" x2="36.7393" y2="45.2851" gradientUnits="userSpaceOnUse">
<stop stop-color="#EA8F00"/>
<stop offset="1" stop-color="#CE6800"/>
</linearGradient>
<linearGradient id="paint21_linear_152_7425" x1="46.5261" y1="34.0625" x2="46.5261" y2="54.5554" gradientUnits="userSpaceOnUse">
<stop stop-color="#FFC418"/>
<stop offset="0.2806" stop-color="#F5A300"/>
<stop offset="0.5594" stop-color="#E07C00"/>
<stop offset="0.8577" stop-color="#C25E00"/>
<stop offset="1" stop-color="#E07C00"/>
</linearGradient>
<linearGradient id="paint22_linear_152_7425" x1="28.474" y1="34.1581" x2="28.474" y2="58.622" gradientUnits="userSpaceOnUse">
<stop stop-color="#FFD83D"/>
<stop offset="0.1597" stop-color="#FFF4B6"/>
<stop offset="0.4263" stop-color="#FFE655"/>
<stop offset="0.7133" stop-color="#F09900"/>
<stop offset="0.9306" stop-color="#E07C00"/>
</linearGradient>
<linearGradient id="paint23_linear_152_7425" x1="37.4999" y1="19.1794" x2="37.4999" y2="56.3331" gradientUnits="userSpaceOnUse">
<stop offset="0.1333" stop-color="#FFBD0C"/>
<stop offset="0.3097" stop-color="#FFDF49"/>
<stop offset="0.4929" stop-color="#FFF4B6"/>
<stop offset="0.6271" stop-color="#FFD131"/>
<stop offset="0.7137" stop-color="#FFBD0C"/>
<stop offset="1" stop-color="#FFD83D"/>
</linearGradient>
<linearGradient id="paint24_linear_152_7425" x1="28.3689" y1="23.7324" x2="22.5183" y2="27.829" gradientUnits="userSpaceOnUse">
<stop stop-color="#EA8F00"/>
<stop offset="0.4728" stop-color="#B55400"/>
<stop offset="0.5841" stop-color="#EA8F00"/>
<stop offset="1" stop-color="#FFB600"/>
</linearGradient>
<linearGradient id="paint25_linear_152_7425" x1="47.097" y1="24.1023" x2="52.8177" y2="28.0518" gradientUnits="userSpaceOnUse">
<stop stop-color="#EA8F00"/>
<stop offset="0.4177" stop-color="#B55400"/>
<stop offset="0.5562" stop-color="#EA8F00"/>
<stop offset="1" stop-color="#FFE655"/>
</linearGradient>
<linearGradient id="paint26_linear_152_7425" x1="28.2996" y1="27.2896" x2="24.789" y2="30.3853" gradientUnits="userSpaceOnUse">
<stop stop-color="#FFF4B6"/>
<stop offset="1" stop-color="#FFD83D"/>
</linearGradient>
<linearGradient id="paint27_linear_152_7425" x1="45.3779" y1="40.0624" x2="44.1013" y2="37.605" gradientUnits="userSpaceOnUse">
<stop stop-color="#F09900"/>
<stop offset="1" stop-color="#CE6800"/>
</linearGradient>
<linearGradient id="paint28_linear_152_7425" x1="29.5763" y1="40.0626" x2="30.853" y2="37.6052" gradientUnits="userSpaceOnUse">
<stop stop-color="#F09900"/>
<stop offset="1" stop-color="#CE6800"/>
</linearGradient>
<linearGradient id="paint29_linear_152_7425" x1="30.0302" y1="35.7379" x2="30.0302" y2="32.5966" gradientUnits="userSpaceOnUse">
<stop stop-color="#FFF8CE"/>
<stop offset="1" stop-color="#FFF19E"/>
</linearGradient>
<linearGradient id="paint30_linear_152_7425" x1="44.9703" y1="35.8497" x2="44.9703" y2="32.5305" gradientUnits="userSpaceOnUse">
<stop stop-color="#FFF8CE"/>
<stop offset="1" stop-color="#FFF19E"/>
</linearGradient>
<linearGradient id="paint31_linear_152_7425" x1="37.5004" y1="43.9757" x2="37.5004" y2="59.5539" gradientUnits="userSpaceOnUse">
<stop stop-color="#FFB600"/>
<stop offset="1" stop-color="#EA8F00"/>
</linearGradient>
<linearGradient id="paint32_linear_152_7425" x1="49.3104" y1="23.5398" x2="49.3104" y2="27.3883" gradientUnits="userSpaceOnUse">
<stop stop-color="#FFB600"/>
<stop offset="1" stop-color="#EA8F00"/>
</linearGradient>
<linearGradient id="paint33_linear_152_7425" x1="25.6899" y1="23.5398" x2="25.6899" y2="27.3884" gradientUnits="userSpaceOnUse">
<stop stop-color="#FFB600"/>
<stop offset="1" stop-color="#EA8F00"/>
</linearGradient>
</defs>
</svg>
