<svg width="117" height="96" viewBox="0 0 117 96" fill="none" xmlns="http://www.w3.org/2000/svg">
<path d="M41.3507 9.07107C42.4553 9.07107 43.3508 9.9665 43.3508 11.0711V13.9156H20.8237V41.9993H14.6419V13.9156H2.42226C1.08448 13.9156 0 12.8311 0 11.4933V11.4933C0 10.1556 1.08448 9.07107 2.42226 9.07107H41.3507Z" fill="url(#paint0_linear_152_7272)"/>
<path d="M36.4608 24.108C37.2275 22.8969 38.2099 21.9351 39.4079 21.2227C40.6299 20.5103 41.9477 20.154 43.3614 20.154V26.6728H41.6003C39.971 26.6728 38.7011 27.0171 37.7906 27.7058C36.904 28.3945 36.4608 29.5581 36.4608 31.1967V39.7933C36.4608 40.8979 35.5653 41.7933 34.4608 41.7933H32.3149C31.2103 41.7933 30.3149 40.8979 30.3149 39.7933V22.3678C30.3149 21.2632 31.2103 20.3678 32.3149 20.3678H36.4608V24.108Z" fill="url(#paint1_linear_152_7272)"/>
<path d="M63.8808 20.3678C64.9853 20.3678 65.8808 21.2632 65.8808 22.3678V43.3487C65.8808 45.0558 64.4969 46.4396 62.7899 46.4396V46.4396C61.0828 46.4396 59.6989 45.0558 59.6989 43.3487V36.6468C59.1239 37.8104 58.2613 38.7366 57.1112 39.4253C55.9851 40.114 54.6672 40.4583 53.1577 40.4583C50.8575 40.4583 49.0246 39.6984 47.6588 38.1785C46.317 36.6587 45.6461 34.5689 45.6461 31.9091V20.3678H51.7561V31.1611C51.7561 32.5147 52.1035 33.5715 52.7983 34.3314C53.5171 35.0676 54.4756 35.4357 55.6736 35.4357C56.9195 35.4357 57.9019 35.0438 58.6207 34.2602C59.3395 33.4765 59.6989 32.3603 59.6989 30.9117V20.3678H63.8808Z" fill="url(#paint2_linear_152_7272)"/>
<path d="M77.4124 20.1184C79.9522 20.1184 81.9769 20.7477 83.4864 22.0064C84.7198 23.0188 85.5813 24.2924 86.0706 25.8272C86.2606 26.423 85.7844 26.9934 85.159 26.9934H80.6111C80.4434 26.1859 80.06 25.5566 79.461 25.1054C78.886 24.6305 78.1552 24.393 77.2686 24.393C76.5738 24.393 76.0466 24.5474 75.6872 24.8561C75.3278 25.1411 75.1481 25.5566 75.1481 26.1028C75.1481 26.7203 75.4716 27.1834 76.1185 27.4921C76.7894 27.8008 77.8317 28.1095 79.2454 28.4182C80.7788 28.7744 82.0368 29.1425 83.0191 29.5225C84.0015 29.8787 84.8521 30.4724 85.5709 31.3036C86.2897 32.1347 86.6491 33.2509 86.6491 34.652C86.6491 35.7919 86.3377 36.8012 85.7147 37.6798C85.0917 38.5585 84.1932 39.2472 83.0191 39.7459C81.8451 40.2446 80.4554 40.4939 78.85 40.4939C76.1425 40.4939 73.9741 39.9002 72.3447 38.7129C70.7154 37.5255 69.7211 35.8275 69.3617 33.619H75.2919C75.3877 34.4739 75.7471 35.1269 76.3701 35.5782C77.017 36.0294 77.8437 36.255 78.85 36.255C79.5449 36.255 80.072 36.1006 80.4314 35.7919C80.7908 35.4594 80.9705 35.032 80.9705 34.5095C80.9705 33.8208 80.6351 33.334 79.9642 33.049C79.3172 32.7403 78.251 32.4197 76.7655 32.0872C75.2799 31.7785 74.0579 31.4461 73.0995 31.0898C72.1411 30.7336 71.3144 30.1637 70.6196 29.38C69.9247 28.5726 69.5773 27.4802 69.5773 26.1028C69.5773 24.3218 70.2602 22.885 71.6259 21.7926C72.9917 20.6765 74.9205 20.1184 77.4124 20.1184Z" fill="url(#paint3_linear_152_7272)"/>
<path d="M101.917 35.0082C103.363 35.0082 104.535 36.1804 104.535 37.6264V37.6264C104.535 39.0724 103.363 40.2446 101.917 40.2446H98.6421C96.294 40.2446 94.461 39.6746 93.1432 38.5347C91.8493 37.3711 91.2024 35.4594 91.2024 32.7997V25.4973H88.5068V20.3678H91.2024V0H95.3482C96.4528 0 97.3483 0.895431 97.3483 2V20.3678H117V23.4973C117 24.6018 116.105 25.4973 115 25.4973H97.3483V32.9065C97.3483 33.6902 97.504 34.2364 97.8155 34.5451C98.1509 34.8539 98.702 35.0082 99.4688 35.0082H101.917Z" fill="url(#paint4_linear_152_7272)"/>
<path d="M31.1068 55.328V60.1725H20.684V65.6938H28.7348V70.3246H20.684V77.4394C20.684 79.1366 19.3082 80.5124 17.6111 80.5124V80.5124C15.914 80.5124 14.5382 79.1366 14.5382 77.4394V55.328H31.1068Z" fill="url(#paint5_linear_152_7272)"/>
<path d="M40.4093 54.1525V77.4394C40.4093 79.1366 39.0335 80.5124 37.3364 80.5124V80.5124C35.6393 80.5124 34.2635 79.1366 34.2635 77.4394V54.1525H40.4093Z" fill="url(#paint6_linear_152_7272)"/>
<path d="M54.0331 60.3862C56.0218 60.3862 57.7949 60.8018 59.3523 61.633C60.9337 62.4404 62.1677 63.6159 63.0542 65.1595C63.9647 66.7031 64.42 68.5079 64.42 70.574C64.42 72.64 63.9647 74.4449 63.0542 75.9884C62.1677 77.532 60.9337 78.7194 59.3523 79.5506C57.7949 80.358 56.0218 80.7617 54.0331 80.7617C52.0444 80.7617 50.2593 80.358 48.6779 79.5506C47.0965 78.7194 45.8506 77.532 44.9401 75.9884C44.0536 74.4449 43.6103 72.64 43.6103 70.574C43.6103 68.5079 44.0536 66.7031 44.9401 65.1595C45.8506 63.6159 47.0965 62.4404 48.6779 61.633C50.2593 60.8018 52.0444 60.3862 54.0331 60.3862ZM54.0331 65.6582C52.859 65.6582 51.8647 66.0857 51.05 66.9406C50.2593 67.7717 49.864 68.9829 49.864 70.574C49.864 72.1651 50.2593 73.3762 51.05 74.2074C51.8647 75.0385 52.859 75.4541 54.0331 75.4541C55.2072 75.4541 56.1895 75.0385 56.9802 74.2074C57.7709 73.3762 58.1663 72.1651 58.1663 70.574C58.1663 68.9829 57.7709 67.7717 56.9802 66.9406C56.1895 66.0857 55.2072 65.6582 54.0331 65.6582Z" fill="url(#paint7_linear_152_7272)"/>
<path d="M79.7548 80.5124L73.7528 72.0701V92.9271C73.7528 94.6242 72.377 96 70.6798 96V96C68.9827 96 67.6069 94.6242 67.6069 92.9271V54.1525H73.7528V68.6148L79.7548 60.6356H86.9789L78.8923 70.574L85.795 78.8729C86.3369 79.5244 85.8736 80.5124 85.0262 80.5124H79.7548Z" fill="url(#paint8_linear_152_7272)"/>
<path d="M88.8279 55.043C88.8279 54.1168 89.1634 53.3569 89.8343 52.7632C90.5051 52.1458 91.3917 51.8371 92.4939 51.8371C93.596 51.8371 94.4826 52.1458 95.1535 52.7632C95.8244 53.3569 96.1598 54.1168 96.1598 55.043C96.1598 55.9454 95.8244 56.7053 95.1535 57.3228C94.4826 57.9165 93.596 58.2133 92.4939 58.2133C91.3917 58.2133 90.5051 57.9165 89.8343 57.3228C89.1634 56.7053 88.8279 55.9454 88.8279 55.043ZM95.5488 60.6356V82.0857C95.5488 83.7829 94.173 85.1587 92.4759 85.1587V85.1587C90.7788 85.1587 89.403 83.7829 89.403 82.0857V60.6356H95.5488Z" fill="url(#paint9_linear_152_7272)"/>
<defs>
<linearGradient id="paint0_linear_152_7272" x1="58.5" y1="0" x2="58.5" y2="96" gradientUnits="userSpaceOnUse">
<stop stop-color="#8045FE"/>
<stop offset="1" stop-color="#4B71FC"/>
</linearGradient>
<linearGradient id="paint1_linear_152_7272" x1="58.5" y1="0" x2="58.5" y2="96" gradientUnits="userSpaceOnUse">
<stop stop-color="#8045FE"/>
<stop offset="1" stop-color="#4B71FC"/>
</linearGradient>
<linearGradient id="paint2_linear_152_7272" x1="58.5" y1="0" x2="58.5" y2="96" gradientUnits="userSpaceOnUse">
<stop stop-color="#8045FE"/>
<stop offset="1" stop-color="#4B71FC"/>
</linearGradient>
<linearGradient id="paint3_linear_152_7272" x1="58.5" y1="0" x2="58.5" y2="96" gradientUnits="userSpaceOnUse">
<stop stop-color="#8045FE"/>
<stop offset="1" stop-color="#4B71FC"/>
</linearGradient>
<linearGradient id="paint4_linear_152_7272" x1="58.5" y1="0" x2="58.5" y2="96" gradientUnits="userSpaceOnUse">
<stop stop-color="#8045FE"/>
<stop offset="1" stop-color="#4B71FC"/>
</linearGradient>
<linearGradient id="paint5_linear_152_7272" x1="58.5" y1="0" x2="58.5" y2="96" gradientUnits="userSpaceOnUse">
<stop stop-color="#8045FE"/>
<stop offset="1" stop-color="#4B71FC"/>
</linearGradient>
<linearGradient id="paint6_linear_152_7272" x1="58.5" y1="0" x2="58.5" y2="96" gradientUnits="userSpaceOnUse">
<stop stop-color="#8045FE"/>
<stop offset="1" stop-color="#4B71FC"/>
</linearGradient>
<linearGradient id="paint7_linear_152_7272" x1="58.5" y1="0" x2="58.5" y2="96" gradientUnits="userSpaceOnUse">
<stop stop-color="#8045FE"/>
<stop offset="1" stop-color="#4B71FC"/>
</linearGradient>
<linearGradient id="paint8_linear_152_7272" x1="58.5" y1="0" x2="58.5" y2="96" gradientUnits="userSpaceOnUse">
<stop stop-color="#8045FE"/>
<stop offset="1" stop-color="#4B71FC"/>
</linearGradient>
<linearGradient id="paint9_linear_152_7272" x1="58.5" y1="0" x2="58.5" y2="96" gradientUnits="userSpaceOnUse">
<stop stop-color="#8045FE"/>
<stop offset="1" stop-color="#4B71FC"/>
</linearGradient>
</defs>
</svg>
